<svg xmlns="http://www.w3.org/2000/svg" viewBox="0 0 1088 558" width="1088" height="558" font-family="sans-serif"><rect width="1088" height="558" fill="#0f1115"/><g><path d="M 436 92 a 30 30 0 0 1 5 -58 a 40 40 0 0 1 77 -13 a 35 35 0 0 1 53 11 a 28 28 0 0 1 5 60 Z" fill="#171a21" stroke="#262b35" stroke-width="1.5"/><text x="544" y="52" text-anchor="middle" fill="#e7e9ee" font-size="13" font-weight="700">GitHub</text><text x="544" y="70" text-anchor="middle" fill="#8b90a0" font-size="10.5">github.com/bDotRad · origin of truth</text></g><path d="M 544 92 C 544 120, 154 112, 154 150" fill="none" stroke="#262b35" stroke-width="1.5" stroke-dasharray="4 4"/><g><rect x="38" y="150" width="232" height="74" rx="10" fill="#171a21" stroke="#4f8cff" stroke-width="1.5"/><rect x="52" y="166" width="30" height="21" rx="3" fill="none" stroke="#6cc04a" stroke-width="1.5"/><circle cx="59" cy="173" r="1.8" fill="#c51a4a"/><circle cx="59" cy="181" r="1.8" fill="#c51a4a"/><circle cx="76" cy="173" r="1.8" fill="#6cc04a"/><circle cx="76" cy="181" r="1.8" fill="#6cc04a"/><text x="92" y="174" fill="#e7e9ee" font-size="12.5" font-weight="700">BdRPiSrvDev</text><text x="92" y="189" fill="#8b90a0" font-size="9.5">bdr Pi Dev Server</text><text x="154" y="212" text-anchor="middle" fill="#8b90a0" font-size="9.5">this host, local · 10.10.8.11</text></g><path d="M 154 224 L 154 402" fill="none" stroke="#262b35" stroke-width="1.5"/><path d="M 154 270 L 44 270" fill="none" stroke="#262b35" stroke-width="1.5"/><g><rect x="44" y="247" width="220" height="46" rx="23" fill="#171a21" stroke="#22c55e" stroke-width="1.5" /><circle cx="62" cy="270" r="5" fill="#22c55e"/><text x="78" y="267" fill="#e7e9ee" font-size="12" font-weight="600">BdRDev</text><text x="78" y="282" fill="#8b90a0" font-size="9.5">live</text></g><path d="M 154 336 L 44 336" fill="none" stroke="#262b35" stroke-width="1.5"/><g><rect x="44" y="313" width="220" height="46" rx="23" fill="#171a21" stroke="#a855f7" stroke-width="1.5" /><circle cx="62" cy="336" r="5" fill="#a855f7"/><text x="78" y="333" fill="#e7e9ee" font-size="12" font-weight="600">CloudCLI</text><text x="78" y="348" fill="#8b90a0" font-size="9.5">deployed</text></g><path d="M 154 402 L 44 402" fill="none" stroke="#262b35" stroke-width="1.5"/><g><rect x="44" y="379" width="220" height="46" rx="23" fill="#171a21" stroke="#22c55e" stroke-width="1.5" /><circle cx="62" cy="402" r="5" fill="#22c55e"/><text x="78" y="399" fill="#e7e9ee" font-size="12" font-weight="600">BdRWebGUIDev</text><text x="78" y="414" fill="#8b90a0" font-size="9.5">live</text></g><path d="M 544 92 C 544 120, 414 112, 414 150" fill="none" stroke="#262b35" stroke-width="1.5" stroke-dasharray="4 4"/><g><rect x="298" y="150" width="232" height="74" rx="10" fill="#171a21" stroke="#4f8cff" stroke-width="1.5"/><rect x="312" y="166" width="30" height="21" rx="3" fill="none" stroke="#6cc04a" stroke-width="1.5"/><circle cx="319" cy="173" r="1.8" fill="#c51a4a"/><circle cx="319" cy="181" r="1.8" fill="#c51a4a"/><circle cx="336" cy="173" r="1.8" fill="#6cc04a"/><circle cx="336" cy="181" r="1.8" fill="#6cc04a"/><text x="352" y="174" fill="#e7e9ee" font-size="12.5" font-weight="700">BdRPiSrvAMI</text><text x="352" y="189" fill="#8b90a0" font-size="9.5">bdr Pi AMI Server</text><text x="414" y="212" text-anchor="middle" fill="#8b90a0" font-size="9.5">Raspberry Pi 8GB · 10.10.10.20</text></g><path d="M 414 224 L 414 468" fill="none" stroke="#262b35" stroke-width="1.5"/><path d="M 414 270 L 304 270" fill="none" stroke="#262b35" stroke-width="1.5"/><g><rect x="304" y="247" width="220" height="46" rx="23" fill="#171a21" stroke="#eab308" stroke-width="1.5" /><circle cx="322" cy="270" r="5" fill="#eab308"/><text x="338" y="267" fill="#e7e9ee" font-size="12" font-weight="600">BdRAMAssist</text><text x="338" y="282" fill="#8b90a0" font-size="9.5">building · shares:PlanBdRad</text></g><path d="M 414 336 L 304 336" fill="none" stroke="#262b35" stroke-width="1.5"/><g><rect x="304" y="313" width="220" height="46" rx="23" fill="#171a21" stroke="#eab308" stroke-width="1.5" /><circle cx="322" cy="336" r="5" fill="#eab308"/><text x="338" y="333" fill="#e7e9ee" font-size="12" font-weight="600">PlanBdRad</text><text x="338" y="348" fill="#8b90a0" font-size="9.5">building · Supabase</text></g><path d="M 414 402 L 304 402" fill="none" stroke="#262b35" stroke-width="1.5"/><g><rect x="304" y="379" width="220" height="46" rx="23" fill="#171a21" stroke="#a855f7" stroke-width="1.5" /><circle cx="322" cy="402" r="5" fill="#a855f7"/><text x="338" y="399" fill="#e7e9ee" font-size="12" font-weight="600">BdRAMI</text><text x="338" y="414" fill="#8b90a0" font-size="9.5">deployed</text></g><path d="M 414 468 L 304 468" fill="none" stroke="#262b35" stroke-width="1.5"/><g opacity="0.55"><rect x="304" y="445" width="220" height="46" rx="23" fill="#171a21" stroke="#6b7280" stroke-width="1.5" stroke-dasharray="4 3"/><circle cx="322" cy="468" r="5" fill="#6b7280"/><text x="338" y="465" fill="#e7e9ee" font-size="12" font-weight="600">BdRIS</text><text x="338" y="480" fill="#8b90a0" font-size="9.5">planned</text></g><path d="M 544 92 C 544 120, 674 112, 674 150" fill="none" stroke="#262b35" stroke-width="1.5" stroke-dasharray="4 4"/><g><rect x="558" y="150" width="232" height="74" rx="10" fill="#171a21" stroke="#4f8cff" stroke-width="1.5"/><rect x="572" y="166" width="30" height="21" rx="3" fill="none" stroke="#6cc04a" stroke-width="1.5"/><circle cx="579" cy="173" r="1.8" fill="#c51a4a"/><circle cx="579" cy="181" r="1.8" fill="#c51a4a"/><circle cx="596" cy="173" r="1.8" fill="#6cc04a"/><circle cx="596" cy="181" r="1.8" fill="#6cc04a"/><text x="612" y="174" fill="#e7e9ee" font-size="12.5" font-weight="700">BdRBirdDetector</text><text x="612" y="189" fill="#8b90a0" font-size="9.5">bdr Bird Detector</text><text x="674" y="212" text-anchor="middle" fill="#8b90a0" font-size="9.5">physical Pi, 192.168.1.187</text></g><path d="M 674 224 L 674 270" fill="none" stroke="#262b35" stroke-width="1.5"/><path d="M 674 270 L 564 270" fill="none" stroke="#262b35" stroke-width="1.5"/><g><rect x="564" y="247" width="220" height="46" rx="23" fill="#171a21" stroke="#eab308" stroke-width="1.5" /><circle cx="582" cy="270" r="5" fill="#eab308"/><text x="598" y="267" fill="#e7e9ee" font-size="12" font-weight="600">BdRBirdDetector</text><text x="598" y="282" fill="#8b90a0" font-size="9.5">building</text></g><path d="M 544 92 C 544 120, 934 112, 934 150" fill="none" stroke="#262b35" stroke-width="1.5" stroke-dasharray="4 4"/><g><rect x="818" y="150" width="232" height="74" rx="10" fill="#171a21" stroke="#262b35" stroke-width="1.5" stroke-dasharray="5 3"/><text x="934" y="184" text-anchor="middle" fill="#8b90a0" font-size="12" font-weight="700">not mapped to a server</text><text x="934" y="202" text-anchor="middle" fill="#8b90a0" font-size="9.5">check each project Runs on</text></g><path d="M 934 224 L 934 270" fill="none" stroke="#262b35" stroke-width="1.5"/><path d="M 934 270 L 824 270" fill="none" stroke="#262b35" stroke-width="1.5"/><g><rect x="824" y="247" width="220" height="46" rx="23" fill="#171a21" stroke="#6b7280" stroke-width="1.5" /><circle cx="842" cy="270" r="5" fill="#6b7280"/><text x="858" y="267" fill="#e7e9ee" font-size="12" font-weight="600">BdRDungeon</text><text x="858" y="282" fill="#8b90a0" font-size="9.5">planned · Supabase</text></g><g transform="translate(0 550)"><circle cx="29" cy="0" r="5" fill="#22c55e"/><text x="40" y="4" fill="#8b90a0" font-size="10">live</text><circle cx="93" cy="0" r="5" fill="#eab308"/><text x="104" y="4" fill="#8b90a0" font-size="10">building</text><circle cx="183" cy="0" r="5" fill="#a855f7"/><text x="194" y="4" fill="#8b90a0" font-size="10">deployed</text><circle cx="273" cy="0" r="5" fill="#6b7280"/><text x="284" y="4" fill="#8b90a0" font-size="10">planned</text></g></svg>